<?xml version="1.0" standalone="no"?><!DOCTYPE svg PUBLIC "-//W3C//DTD SVG 1.1//EN" "http://www.w3.org/Graphics/SVG/1.1/DTD/svg11.dtd"><svg t="1618828199530" class="icon" viewBox="0 0 1024 1024" version="1.1" xmlns="http://www.w3.org/2000/svg" p-id="5269" width="128" height="128" xmlns:xlink="http://www.w3.org/1999/xlink"><defs><style type="text/css"></style></defs><path d="M747.571227 525.872962l0 55.319933L499.467569 581.192895l-54.844096 0 0-55.319933 0-276.599665 54.844096 0 0 276.599665L747.571227 525.872962zM513.505283 1023.753383c-230.231615 0-424.285263-153.947208-487.095797-364.948853-12.938684-6.961552-21.843494-20.510126-21.843494-36.288484 0-22.821775 18.417465-41.322128 41.133839-41.322128 17.800411 0 32.818453 11.426237 38.544875 27.325345l13.885242 0c43.684942 190.07094 212.870202 331.919599 415.374312 331.919599 235.644905 0 426.673659-191.874005 426.673659-428.561659 0-236.6897-191.027731-428.563706-426.673659-428.563706-138.977261 0-262.23961 66.886363-340.118328 170.214706 34.340109-2.665713 71.065546 3.882424 94.143147 35.325553 48.137347 138.51575-257.557984 64.860217-257.557984 64.860217S-37.984103 39.111786 95.02626 99.469456c24.526603 25.044396 26.678616 60.71685 21.12718 93.51893C209.327516 75.526137 352.469634 0 513.505283 0c281.078677 0 508.939291 229.17454 508.939291 511.877203C1022.444575 794.576797 794.58396 1023.753383 513.505283 1023.753383z" fill="#ffffff" p-id="5270"></path></svg>